<?xml version="1.0" encoding="UTF-8"?>
<svg xmlns="http://www.w3.org/2000/svg" xmlns:xlink="http://www.w3.org/1999/xlink" viewBox="0 0 757.08 696.92">
  <defs>
    <style>
      .cls-1, .cls-2 {
        fill: #fff;
      }

      .cls-2, .cls-3 {
        stroke: url(#linear-gradient);
        stroke-miterlimit: 10;
        stroke-width: 10px;
      }

      .cls-4 {
        fill: #f0f1f2;
      }

      .cls-3 {
        fill: none;
      }

      .cls-5 {
        isolation: isolate;
      }

      .cls-6 {
        fill: #0a00d1;
      }

      .cls-7 {
        fill: #d6d8d9;
      }

      .cls-8 {
        fill: #bfc1c2;
      }

      .cls-9 {
        fill: #4652e0;
      }

      .cls-10 {
        fill: #c10e27;
      }

      .cls-11 {
        clip-path: url(#clippath);
      }

      .cls-12 {
        fill: #2828a3;
      }

      .cls-13 {
        mix-blend-mode: multiply;
      }
    </style>
    <linearGradient id="linear-gradient" x1="41.88" y1="205.33" x2="715.2" y2="594.08" gradientUnits="userSpaceOnUse">
      <stop offset="0" stop-color="#0a00d1"/>
      <stop offset="1" stop-color="#c10e27"/>
    </linearGradient>
    <clipPath id="clippath">
      <rect class="cls-2" x="106.25" y="107.48" width="544.57" height="584.44"/>
    </clipPath>
  </defs>
  <g class="cls-5">
    <g id="Layer_1" data-name="Layer 1">
      <g>
        <rect class="cls-1" x="106.25" y="107.48" width="544.57" height="584.44"/>
        <g class="cls-11">
          <g>
            <g>
              <path class="cls-6" d="m298.42,317.03c-1.79,7.76-6.57,9.86-14.64,7.47-8.07-2.39-23.6-12.84-64.23-19.42-24.31-3.93-37.93-4.87-47.56-4.35-3.14.17-5.87.5-8.39.93-2.68.44-5.14,1.02-7.67,1.63-10.9,2.66-16.59,8.15-18.76,12.28,0,0-64.43-55.74-92.96-84.27C15.69,202.77,0,144.97,0,144.97L108.62,0l177.01,285.98,8.02,12.52s6.57,10.75,4.78,18.52Z"/>
              <path class="cls-12" d="m364.74,521.06c0,5.38-5.67,10.45-12.24,13.14-6.58,2.69-25.94,15.72-30.15,25.63-3.17-3.59-5.74-7.9-9.24-14.19-1.42-2.56-3-5.45-4.83-8.75-8.28-14.9-15.06-46.49-17.53-58.98-.65-3.28-1-5.24-1-5.24,0,0,17.52,9.98,37.5,22.65,6.54,4.15,13.36,8.59,19.91,13.06.46.31.91.62,1.36.93.64.44,1.28.88,1.92,1.33,2.32,1.61,4.58,3.22,6.79,4.82.66.48,1.32.96,1.97,1.43,1.91,1.41,3.76,2.8,5.54,4.17Z"/>
              <path class="cls-6" d="m208.81,350.41l-.25.06c-.97.22-4.63,1.03-9.35,2.01-7.48,1.56-17.67,3.55-24.15,4.28,0,0-11.65-16.43-14.34-16.43,5.68,0,11.48.3,16.9.82,10.13.96,18.97,2.67,23.35,4.56,6.72,2.91,7.84,4.71,7.84,4.71Z"/>
              <path class="cls-6" d="m390.43,452.95c-6.04-.72-13.82,2.06-18.08,7.65-.13.17-.26.35-.39.53-.84,1.19-1.51,2.5-1.99,3.92-2.84,8.52-5.23,50.64-5.23,56.01s-5.67,10.45-12.24,13.14c-6.58,2.69-25.94,15.72-30.15,25.63,1.19,1.36,2.47,2.62,3.92,3.83,2.05,1.73,4.44,3.4,7.4,5.19,4.46,2.7,8.07,4.84,10.98,6.57,5.47,3.27,8.47,5.12,9.93,6.58.52.52,1.63,1.14,3.13,1.76,2.01.85,4.71,1.73,7.6,2.44,3.94.98,8.23,1.65,11.55,1.52.25-.01.49-.03.72-.04,0,0,1.19-19.72,8.96-28.68,7.77-8.96,11.05-30.17,13.44-56.16,2.39-25.99,2.39-40.92,2.39-40.92,0,0-4.48-8.06-11.95-8.96Zm4.37,28.37c-2.97,4.41-9.76,5.52-12.7,2.42-2.49-2.62-3.59-15.52-3.83-20.02-.06-1.12.44-2.23,1.36-3.01,1.68-1.42,4.79-3.43,8.85-3.43,3.16,0,5.38.61,6.79,1.21,1.26.54,2.04,1.71,2.05,3.03.04,4.36-.18,16.3-2.53,19.79Z"/>
              <path class="cls-6" d="m433.75,455.94c-2.32-4.63-8.93-5.85-15.26-5.19-1.85.19-3.67.54-5.35,1.01-4.43,1.24-7.4,4.58-9.06,7.1-.35.53-.64,1.02-.88,1.44-.02.03-.03.05-.04.08-.41.72-.64,1.24-.73,1.45-.03.06-.04.09-.04.09,0,0,0,14.94-2.39,40.92-2.39,25.99-5.67,47.2-13.44,56.16-7.76,8.96-8.96,28.68-8.96,28.68,0,0,3.78,2.74,9.9,4.71h0c4.77,1.54,10.95,2.61,17.88,1.56,4.78-4.78,12.85-8.36,20.01-22.7,1.59-3.19,2.95-7,4.12-11.19.56-2.01,1.08-4.11,1.56-6.27,0-.02,0-.04.01-.06,1.57-7.08,2.72-14.82,3.62-22.24,0-.07.02-.13.03-.18,0-.03.01-.06.01-.1,0-.01,0-.03,0-.04,0-.01,0-.03,0-.03v-.03c.81-6.6,1.43-12.94,1.99-18.36v-.02c-.02-7.67-.26-51.35-2.98-56.8Zm-1.35,14.78c-.9,3.14-5.38,9.41-14.34,7.85-5.07-.89-7.85-3.57-9.34-7.17h0c-1.14-2.76-1.54-6.05-1.63-9.48-.04-1.5,2.78-4.31,6.6-6.1,2.08-.98,4.47-1.66,6.84-1.66,3.79,0,6.87.64,8.84,1.2,1.43.41,2.48,1.64,2.65,3.12.41,3.51,1.03,10.01.39,12.25Z"/>
              <path class="cls-6" d="m469.3,513.88c-1.8-8.96-6.28-14.33-12.25-15.23-5.27-.79-12.85.98-16.42,5.5-.48.61-.89,1.26-1.21,1.97-.27.59-.5,1.14-.72,1.64-.07.16-.13.32-.19.47-1.78,4.29-1.78,5.65-1.78,5.65,0,0,0-.4,0-1.13-.56,5.41-1.18,11.76-1.98,18.36v.03s0,.02-.01.03c0,.01,0,.03,0,.04,0,.03,0,.06-.01.1,0,.04-.02.11-.03.18-.9,7.42-2.04,15.16-3.62,22.24,0,.02,0,.04-.01.06-.48,2.16-.99,4.25-1.56,6.27-1.17,4.19-2.53,8-4.12,11.19-7.17,14.34-15.23,17.92-20.01,22.7,0,0,.6,1,1.8,2.44,2.57,3.1,7.88,8.27,15.82,10.11,11.65,2.69,28.08,2.69,28.08,2.69l5.97-5.67s1.2-1.43,2.89-3.88t.01-.01c3.74-5.39,9.9-15.7,11.13-26.58,1.79-15.83,0-50.19-1.79-59.15Zm-13.3,10.91c-4.01.47-8.31.2-11.48-.52-2.85-.64-4.79-1.64-4.79-2.77,0-2.39-.3-10.9,1.35-14.49.11-.23.23-.46.37-.68,1.2-1.92,3.49-3.35,5.12-4.17,1.09-.56,2.29-.86,3.52-.9,9.08-.29,12.85,1.73,13.7,4.41.9,2.84.9,12.25.9,13.29s-1.05,4.93-8.66,5.83Z"/>
              <path class="cls-6" d="m490.21,590.66c-3.09-2.1-7.26-2.31-11.07-1.36-.18.04-.36.09-.54.14-.23.06-.44.13-.67.2-.2.06-.39.13-.58.19-.05.02-.1.03-.13.05-.13.04-.27.1-.4.15-.15.06-.29.11-.43.17-.2.08-.39.17-.59.25-.13.06-.27.12-.41.19-.15.07-.3.15-.44.22-.45.23-.88.47-1.29.73-.14.08-.27.17-.41.27-.2.13-.39.27-.58.41-.15.11-.29.22-.43.34-.15.11-.28.23-.41.35-.13.11-.25.22-.37.34-.01.01-.03.03-.04.03-.1.1-.2.2-.29.29-.16.17-.31.33-.45.5-.09.1-.17.2-.25.31-.01.01-.02.02-.03.03-.07.09-.14.18-.2.28-.05.07-.1.14-.15.21-.17.26-.33.53-.46.79-.04.09-.09.17-.13.26-.08.18-.15.37-.21.56-.04.11-.07.21-.1.32-.04.14-.07.28-.1.42-.05.28-.08.56-.08.85,0,.2,0,.39-.01.58-.01.25-.03.49-.04.73-.02.18-.04.36-.06.53-.04.34-.09.68-.15,1.01-.06.32-.12.63-.2.94-.06.25-.12.5-.18.74-.1.37-.21.74-.32,1.09-.13.41-.27.81-.41,1.19-.39,1.03-.81,2-1.23,2.85-.1.2-.19.39-.29.57-.26.51-.51.96-.74,1.36-.2.36-.39.67-.55.93-.05.09-.1.17-.15.23-.27.44-.44.68-.44.68l-6.44-7.25-.73-.82-5.97,5.67s-.02.49-.03,1.36c-.06,4.93.22,22.02,6.3,30.9.18.26.36.51.55.74,7.66,9.5,27.92,5.21,31.42,4.34,1.82-.46,2.71-2.06,3.15-3.54.43-1.43.43-2.74.43-2.74,10.16-23.89,4.78-44.5-2.69-49.58Zm.9,29.32c-2.32,4.14-8.44,5.69-12.24,3.95-.62-.28-1.17-.65-1.64-1.1-2.6-2.53-3.85-15.86-4.29-21.82-.13-1.83.72-3.59,2.23-4.62.13-.1.26-.18.39-.25,1.89-1.07,4.59-2.18,7.71-2.18,6.05,0,9.19,2.19,10.08,4.82.9,2.62.44,16.41-2.24,21.22Z"/>
              <path class="cls-6" d="m498.94,446.08c-9.19-7.4-21.06-20.61-28.45-21.51-6.21-.75-15.11-.08-17.8.15-.51.04-.8.08-.8.08,0,0,1.5,5.83,1.09,14.38-.02.38-.04.77-.07,1.17-.13,1.93-.36,3.99-.72,6.14-.03.2-.06.39-.1.58-.06.35-.13.7-.2,1.05l2.99,2.34,23.37,18.31s-6.87,16.43-4.48,29.57c2.39,13.15,7.77,22.11,18.52,23.6,4.82.67,8.56-.1,11.38-1.75,3.47-2.02,5.55-5.38,6.54-9,1.79-6.57,4.18-18.75,4.18-18.75,0,0,.61-9.04,2.39-17.7,2.28-11.05-8.66-21.28-17.85-28.68Zm11.43,48.04c-.17,3.61-.84,11.56-3.64,15.84-.7,1.09-1.4,1.99-2.05,2.74-2.1,2.42-5.9,2.27-7.78-.34-2.55-3.54-6.04-8.63-7.38-11.75-2.21-5.16,4.67-14.99,9.34-15.98,4.02-.84,8.04,2.31,10.49,5.87.72,1.05,1.07,2.33,1.01,3.61Z"/>
              <path class="cls-6" d="m452.98,439.18c-.02.38-.04.77-.07,1.17-.13,1.93-.36,3.99-.72,6.14-.03.2-.06.39-.1.58-.06.35-.13.7-.2,1.05l-4.78-3.75-17.55-13.75-24.04-18.83c7.73-1.02,13.6-.67,19.68.44,4.65.84,9.43,2.13,15.26,3.59.21.05.42.11.62.16,12.76,3.38,10.8,8.8,10.8,8.8,0,0,1.5,5.83,1.09,14.38Z"/>
              <path class="cls-10" d="m757.08,694.32h-214l-50.19-54.07c10.16-23.89,4.78-44.5-2.69-49.58-3.09-2.1-7.26-2.31-11.07-1.36-.18.04-.36.09-.54.14-.22.06-.45.13-.67.2-.2.06-.39.13-.58.19-.05.02-.1.03-.13.05-.13.04-.27.1-.4.15-.15.06-.29.11-.43.17-.2.08-.39.17-.59.25-.13.06-.27.12-.41.19-.15.07-.3.15-.44.22-.45.23-.88.47-1.29.73-.14.09-.27.18-.41.27-.2.13-.39.27-.58.41-.15.11-.29.22-.43.34-.14.11-.28.23-.41.35-.13.11-.25.22-.37.34-.01.01-.03.03-.04.03-.1.1-.2.2-.29.29-.16.17-.31.33-.45.5-.09.1-.17.21-.25.31-.01.01-.02.02-.03.03-.07.1-.14.18-.2.28-.05.07-.1.14-.15.21-.17.26-.33.53-.46.79-.04.09-.09.17-.13.26-.08.18-.15.37-.21.56-.04.11-.07.21-.1.32-.04.14-.07.28-.1.42-.05.28-.08.56-.08.85,0,.2,0,.39-.01.58-.01.25-.03.49-.04.73-.02.18-.04.36-.06.53-.04.34-.09.68-.15,1.01-.06.32-.12.63-.2.94-.06.25-.12.5-.18.74-.1.37-.21.74-.32,1.09-.13.41-.27.81-.41,1.19-.39,1.03-.81,2-1.23,2.85-.1.2-.19.39-.29.57-.49.95-.95,1.74-1.29,2.29-.05.08-.1.17-.15.23-.27.44-.44.68-.44.68l-6.44-7.25-.73-.82s12.25-14.64,14.04-30.47c.65-5.71.83-13.84.7-22.32-.08-6.35-.34-12.89-.69-18.76-.05-.85-.11-1.69-.16-2.51-.46-6.9-1.05-12.61-1.64-15.56-1.8-8.96-6.28-14.33-12.25-15.23-5.97-.9-14.94,1.5-17.62,7.47-2.69,5.97-2.69,7.76-2.69,7.76,0,0,0-.4,0-1.13v-.02c-.02-7-.22-43.98-2.32-54.54-.2-1.02-.43-1.78-.66-2.26-2.99-5.97-13.15-6.27-20.61-4.18-.46.13-.9.28-1.33.45h-.01c-6.53,2.61-9.42,9.71-9.42,9.71,0,0-.87-1.57-2.48-3.4-2.05-2.32-5.29-5.06-9.46-5.56,0,0-.03,0-.09,0-.91-.11-1.87-.13-2.85-.08-6.98.38-15.04,4.74-17.52,12.18-2.84,8.52-5.23,50.64-5.23,56.01-27.78-21.51-74.98-48.4-74.98-48.4,0,0-9.26.3-24.79-6.87-15.53-7.17-35.25-19.72-44.8-26.88-9.56-7.17-5.98-19.12-5.98-19.12,0,0-5.08,2.09-12.24,0-7.17-2.09-14.34-11.35-14.34-17.63s7.47-10.45,7.47-10.45c0,0-19.12,2.99-27.19,0-8.06-2.98-15.23-17.92-11.35-25.09,3.88-7.17,18.52-9.85,18.52-9.85,6.48-.73,16.66-2.72,24.15-4.28,4.72-.98,8.38-1.8,9.35-2.01l.25-.06s-1.12-1.8-7.84-4.71c-4.38-1.89-13.22-3.6-23.35-4.56-5.43-.52-11.22-.82-16.9-.82-2.69,0-14.34,3.59-20.91-1.19-6.58-4.78-4.78-17.92-3.29-22.1.17-.46.38-.95.65-1.47,2.17-4.13,7.86-9.62,18.76-12.28,2.53-.62,4.99-1.19,7.67-1.63,2.53-.43,5.25-.76,8.39-.93,9.64-.52,23.25.42,47.56,4.35,40.63,6.58,56.16,17.03,64.23,19.42,4.46,1.33,7.92,1.28,10.42-.36l.1-.06c1.97-1.32,3.33-3.64,4.12-7.05,1.79-7.77-4.78-18.52-4.78-18.52l-8.02-12.52c.65-.43,1.35-.83,2.09-1.21,8.68-4.34,22.97-4.47,27.51-1.58,4.93,3.14,9.64,16.8,16.35,33.16,6.72,16.35,32.04,58.92,45.93,72.81,13.89,13.9,28.01,22.63,28.01,22.63l46.37,36.33,18.27,14.31,8.09,6.34s-6.87,16.43-4.48,29.57c2.39,13.15,7.77,22.11,18.52,23.6.63.09,1.24.15,1.83.19,9.54.63,14.41-4.76,16.1-10.94,1.79-6.57,4.18-18.75,4.18-18.75,0,0,83.35,53.99,153.25,97.01,54.58,33.59,78.45,78.66,86.29,96.8,2.2,5.08,3.14,8.06,3.14,8.06Z"/>
              <g>
                <path class="cls-9" d="m510.37,494.12c-.08,1.82-.3,4.76-.85,7.77-.54,2.94-1.4,5.95-2.79,8.07-.7,1.09-1.4,1.99-2.05,2.74-2.1,2.42-5.9,2.27-7.78-.34-2.27-3.14-5.26-7.51-6.84-10.63-.2-.39-.38-.77-.53-1.12-2.21-5.16,4.67-14.99,9.34-15.98,4.02-.84,8.04,2.31,10.49,5.87.72,1.05,1.07,2.33,1.01,3.61Z"/>
                <path class="cls-9" d="m394.8,481.32c-1.93,2.86-5.47,4.34-8.53,4.17-1.64-.09-3.15-.66-4.18-1.75-2.49-2.62-3.59-15.52-3.83-20.02-.06-1.12.44-2.23,1.36-3.01,1.18-1,3.07-2.29,5.49-2.96,1.03-.29,2.15-.47,3.36-.47,3.16,0,5.38.61,6.79,1.21,1.26.54,2.04,1.71,2.05,3.03.04,4.36-.18,16.3-2.53,19.79Z"/>
                <path class="cls-9" d="m432.4,470.72c-.84,2.95-4.85,8.67-12.78,8.04-.5-.04-1.02-.1-1.56-.2-8.96-1.57-10.75-8.74-10.98-16.66-.06-1.9,4.48-5.9,9.82-7.27,1.18-.31,2.4-.49,3.62-.49,3.79,0,6.87.64,8.84,1.2,1.43.41,2.48,1.64,2.65,3.12.41,3.51,1.03,10.01.39,12.25Z"/>
                <path class="cls-9" d="m464.66,518.96c0,.88-.74,3.76-5.48,5.19-.91.27-1.96.5-3.18.63-7.62.9-16.28-.9-16.28-3.29s-.3-10.9,1.35-14.49c1.03-2.26,3.68-3.93,5.48-4.85,1.09-.56,2.29-.86,3.52-.9.27,0,.53-.01.79-.02,8.51-.15,12.09,1.83,12.91,4.42.9,2.84.9,12.25.9,13.29Z"/>
                <path class="cls-9" d="m491.46,619.25c-.11.26-.23.51-.36.73-2.69,4.81-10.53,6.13-13.89,2.84-2.6-2.53-3.85-15.86-4.29-21.82-.15-1.99.87-3.88,2.63-4.88,1.09-.62,2.46-1.26,4.02-1.67,1.14-.32,2.38-.51,3.69-.51,6.05,0,9.19,2.19,10.08,4.82.85,2.5.48,15.15-1.88,20.49Z"/>
              </g>
            </g>
            <g class="cls-13">
              <path class="cls-4" d="m382.1,483.74c-2.49-2.62-3.59-15.52-3.83-20.02-.06-1.12.44-2.23,1.36-3.01,1.18-1,3.07-2.29,5.49-2.96-1.69,10.18-1.21,21.84,1.15,27.74-1.64-.09-3.15-.66-4.18-1.75Z"/>
              <path class="cls-4" d="m419.62,478.76c-.5-.04-1.02-.1-1.56-.2-8.96-1.57-10.75-8.74-10.98-16.66-.06-1.9,4.48-5.9,9.82-7.27-1.05,5.75-1.63,13.15.63,18.57.72,1.75,1.42,3.62,2.09,5.55Z"/>
              <path class="cls-4" d="m464.66,518.96c0,.88-.74,3.76-5.48,5.19,1.12-2.6,1.96-5.49,1.45-7.91-.99-4.72-5.26-11.43-9.78-15,8.51-.15,12.09,1.83,12.91,4.42.9,2.84.9,12.25.9,13.29Z"/>
              <path class="cls-4" d="m510.37,494.12c-.08,1.82-.3,4.76-.85,7.77v-.03c0-3.66-3.8-15.22-9.78-14.09-5.17.98-7.62,7.27-9.68,13.97-.2-.39-.38-.77-.53-1.12-2.21-5.16,4.67-14.99,9.34-15.98,4.02-.84,8.04,2.31,10.49,5.87.72,1.05,1.07,2.33,1.01,3.61Z"/>
              <path class="cls-4" d="m491.46,619.25c-.11.26-.23.51-.36.73-2.69,4.81-10.53,6.13-13.89,2.84-2.6-2.53-3.85-15.86-4.29-21.82-.15-1.99.87-3.88,2.63-4.88,1.09-.62,2.46-1.26,4.02-1.67-1.88,8.07-2.96,18.75,1.08,22.79,3.57,3.57,7.75,3.54,10.82,2.01Z"/>
            </g>
            <g class="cls-13">
              <path class="cls-7" d="m411.8,452.2c-6.53,2.61-9.42,9.71-9.42,9.71,0,0-.87-1.57-2.48-3.4,1.35-2.22,4.7-5.99,11.9-6.3Z"/>
              <path class="cls-7" d="m387.49,452.86c-6.98.38-15.04,4.74-17.52,12.18-2.84,8.52-5.23,50.64-5.23,56.01-27.78-21.51-74.98-48.4-74.98-48.4,0,0-9.26.3-24.79-6.87-15.53-7.17-35.25-19.72-44.8-26.88-9.56-7.17-5.98-19.12-5.98-19.12,0,0-5.08,2.09-12.24,0-7.17-2.09-14.34-11.35-14.34-17.63s7.47-10.45,7.47-10.45c0,0-19.12,2.99-27.19,0-8.06-2.98-15.23-17.92-11.35-25.09,3.88-7.17,18.52-9.85,18.52-9.85,0,0-11.65-16.43-14.34-16.43s-14.34,3.59-20.91-1.19c-6.58-4.78-4.78-17.92-3.29-22.1.17-.46.38-.95.65-1.47,0,0-64.43-55.74-92.96-84.27C15.69,202.77,0,144.97,0,144.97h101.02c-19.61,14.23-32.46,31.56-30.22,46.6,3.14,21.06,21.96,50.19,45.7,67.21,23.75,17.03,47.1,42.88,47.1,42.88,0,0-.05-21.37-6.32-34.15-6.28-12.77-14.79-36.51-14.79-36.51,0,0,23.75,34.5,27.33,47.95,2.19,8.2,2.71,15.56,2.17,21.79-.34,3.99-1.12,7.5-2.17,10.47-2.69,7.62-2.7,27.9,4.48,29.12,1.05.18,2.16.46,3.31.82,6.71,2.07,14.53,6.72,16.85,9.04,2.55,2.55,4.51,2.33,4.74,2.3.01,0,.02,0,.02,0l9.33-2.01.25-.06s12.1-5.15,19.27-10.09c7.17-4.93,19.71-9.86,26.88-2.69,6.83,6.83,14.89,16.52,15.62,17.41-.96-1.02-14.18-14.73-23.24-14.73s-15.69,8.21-10.75,16.43c0,0-6.94-.97-11.65,3.73-4.7,4.7,2.24,17.02,16.58,23.75,14.12,6.61,47.19,24.95,48.22,25.52-1.02-.41-33.64-13.51-47.32-19.25-13.89-5.82-22.4-7.62-31.36-4.93-8.96,2.69,6.72,7.62,22.85,14.78,16.13,7.17,34.2,15.69,55.86,19.27,21.66,3.59,63.33,25.99,63.33,25.99,0,0-24.65-8.52-39.88-10.76-15.23-2.24-49.28-15.23-56.46-15.23s15.69,13.44,36.3,21.51c20.61,8.06,40.77,18.67,50.63,20.76,9.86,2.09,17.48-5.97,25.99-7.76,5.94-1.25,13.67-1.34,17.82-1.28Z"/>
              <path class="cls-7" d="m300.51,320.31c-4.73,2.87-5.91,3.59-6.21,3.77,1.97-1.32,3.33-3.64,4.12-7.05,1.79-7.77-4.78-18.52-4.78-18.52l-8.02-12.52c.65-.43,1.35-.83,2.09-1.21,4.74,3.85,7.41,8.06,7.41,8.06,0,0,3.88-.9,5.67-7.77,0,0,.9,5.98-1.19,9.86-2.09,3.88,4.18,8.07,5.08,11.06.9,2.98,2.13,10.51-4.18,14.33Z"/>
              <path class="cls-7" d="m274.23,357.95s27.48,23,37.04,35.25c9.56,12.25,18.82,27.78,18.82,27.78,0,0-21.06-27.93-26.88-33.76-5.83-5.83-28.98-29.27-28.98-29.27Z"/>
              <path class="cls-7" d="m429.56,430.63l-24.04-18.83c7.73-1.02,13.6-.67,19.68.44-.04,6.56.52,12.4,4.35,18.39Z"/>
              <path class="cls-7" d="m357.24,515.45c-3.42.86-8.19,2.34-13.11,4.83-9.26,4.67-21.39,14.64-21.77,14.96.17-.3,5.55-10.06,9.67-14.18,2.94-2.94,12.82-7.8,18.42-10.42,2.32,1.61,4.58,3.22,6.79,4.82Z"/>
              <path class="cls-7" d="m360.26,559.83c-1.19,7.61-.02,19.09,5.05,26.37-2.89-.71-5.59-1.59-7.6-2.44-3.48-7.06-3.99-16.61-3.28-22.97.89-7.94,13.49-19.35,13.89-19.71-.2.31-6.74,10.31-8.06,18.75Z"/>
              <path class="cls-7" d="m371.96,461.12c-1.32,19.81-2.07,38.8-.95,48.14,1.35,11.2-5.38,20.17-11.2,25.99-5.83,5.83-20.05,21.32-18.82,30.03.42,2.95,1.9,6.61,3.66,10.15-2.91-1.73-6.52-3.87-10.98-6.57-5.05-3.05-8.44-5.74-11.32-9.02,4.21-9.92,23.57-22.94,30.15-25.63,6.57-2.69,12.24-7.76,12.24-13.14s2.39-47.49,5.23-56.01c.48-1.42,1.15-2.73,1.99-3.92Z"/>
              <path class="cls-7" d="m492.47,642.98c-.44,1.48-1.34,3.09-3.15,3.54-3.59.9-24.79,5.38-31.97-5.08-7.17-10.45-6.27-32.27-6.27-32.27,0,0-16.43,0-28.08-2.69-11.65-2.69-17.62-12.55-17.62-12.55-15.83,2.39-27.78-6.27-27.78-6.27-.23.02-.48.03-.72.04-1.2-5.21-2.45-11.27-.48-16.62,3.14-8.51,8.68-21.49,14.34-30.47,5.66-8.98,11.65-78.71,11.65-78.71,0,0,.01-.03.04-.09.1-.2.34-.72.73-1.45.01-.03.03-.06.04-.08,1.38-2.47,4.59-7.03,9.95-8.54,1.68-.47,3.5-.82,5.35-1.01-1.52,1.32-3.24,3.02-4.81,5.07-3.82,1.79-6.64,4.6-6.6,6.1.1,3.43.49,6.72,1.63,9.47h0c1.28,15.03,3.07,37.76-.51,50.81-3.59,13.05-11.65,37.64-11.65,37.64,0,0,8.53-5.76,15.24-3.52,6.72,2.24,8.09,6.72,8.09,6.72,0,0-6.3-6.4-14.37-3.2-8.07,3.2-10.76,11.26-3.14,13.5,6.82,2.01,21.51,2.82,27.12-13.28.65-1.85,1.17-3.94,1.56-6.27,0-.02,0-.04.01-.06,2.74-16.86,3.44-21.15,3.62-22.24,0-.07.02-.13.03-.18,0-.03.01-.06.01-.1,0-.01,0-.03,0-.04,0-.01,0-.03,0-.03v-.03s3.97-23.35,3.97-23.35c.22-.51.45-1.05.72-1.64.32-.71.72-1.36,1.21-1.97.24.62.52,1.36.81,2.19-.14.22-.26.44-.37.68-1.64,3.59-1.35,12.1-1.35,14.49,0,1.13,1.94,2.13,4.79,2.77.14,10.96,1.57,29.37-2.7,39.2-4.48,10.31-19.65,30.2-15.23,34.63,4.41,4.41,28.59,6.25,33.36,1.52-1.69,2.45-2.89,3.88-2.89,3.88l6.68,7.52.49,2.2.62-2.62c1.29-2.12,4.16-7.39,4.16-12.47,0-2.28,1.66-4.49,4.13-6.19.63,1.32,1.33,2.83,2.03,4.44-1.52,1.03-2.37,2.79-2.23,4.62.44,5.97,1.69,19.3,4.29,21.82.47.46,1.03.83,1.64,1.1-1.27,7.9-3.33,16-4.09,18.41-.93,2.92,10.98,3.02,17.7.64Z"/>
              <path class="cls-7" d="m347.16,508.37c-1.76-.51-3.45-.96-5.08-1.32-4.2,1.3-8.85,2.99-12.73,5.02-9.81,5.14-18.04,12.97-18.04,12.97,0,0,.41-5.96,4.13-10.17,2.53-2.86,10.49-7.03,15.34-9.41-1.12-.18-2.27-.39-3.42-.62-3.05.51-6.6,1.11-9.64,1.63-6.87,1.16-13.2,5.64-13.58,5.92.42-.49,7.21-8.22,13.03-9.2.67-.11,1.16-.32,1.52-.63-6.35-2.11-12.33-5.17-16.52-9.36-3.34-3.34-7.57-9.35-11.4-15.29-.65-3.28-1-5.24-1-5.24,0,0,17.52,9.98,37.5,22.65,6.54,4.15,13.36,8.59,19.91,13.06Z"/>
              <path class="cls-7" d="m503.68,520.2c-2.82,1.65-6.56,2.42-11.38,1.75-10.75-1.49-16.13-10.45-18.52-23.6-2.39-13.14,4.48-29.57,4.48-29.57l-23.37-18.31-2.99-2.34c.07-.35.13-.7.2-1.05.04-.2.07-.39.1-.58.37-2.15.6-4.21.72-6.14.03-.4.05-.79.07-1.17.41-8.56-1.09-14.38-1.09-14.38,0,0,.29-.03.8-.08.34,1.05.67,2.12,1.03,3.19,1.38,4.1,1.69,7.92,1.75,11.47,6.06,1.78,12.35,2.67,17.44,2.67,8.09,0,11.39-1.27,11.58-1.34-.11.36-4.13,13.09-3.24,17.49.9,4.46,3.25,4.91,3.25,4.91l9.27-2.23s-9.27,7.17-9.27,19.27,2.43,33.23,9.63,37.19c3.14,1.73,6.62,2.43,9.55,2.88Z"/>
              <path class="cls-8" d="m402.38,520.28c-1.79,19.44-8.96,33.78-12.09,46.33-3.14,12.55-2.79,13.91-2.79,25.77-6.13-1.97-9.9-4.71-9.9-4.71,0,0,1.19-19.72,8.96-28.68,7.77-8.96,11.05-30.17,13.44-56.16,2.39-25.99,2.39-40.92,2.39-40.92,0,0,.01-.03.04-.09.09-.2.32-.73.73-1.45.01-.03.03-.06.04-.08.24-.43.53-.91.88-1.44,2.32,17.39-.06,43.68-1.69,61.43Z"/>
              <path class="cls-8" d="m438.52,508.23c-.06,8.3-.36,15.23-.89,18.65-1.64,10.75-8.44,41.29-10.83,45.93-2.13,4.14-15.38,20.13-19.63,23.57-1.2-1.45-1.8-2.44-1.8-2.44,4.78-4.78,12.85-8.36,20.01-22.7,1.59-3.19,2.95-7,4.12-11.19.56-2.01,1.08-4.11,1.56-6.27,0-.02,0-.04.01-.06,1.57-7.08,2.72-14.82,3.62-22.24,0-.07.02-.13.03-.18,0-.03.01-.06.01-.1,0-.01,0-.03,0-.04,0-.01,0-.03,0-.03v-.03c.81-6.6,1.43-12.94,1.99-18.36,0,.73,0,1.13,0,1.13,0,0,0-1.36,1.78-5.65Z"/>
              <path class="cls-8" d="m494.12,522.14c-.59-.04-1.2-.1-1.83-.19-10.75-1.49-16.13-10.45-18.52-23.6-2.39-13.14,4.48-29.57,4.48-29.57l-8.09-6.34c.52,4.56-1.45,11.18-2.66,16.37-1.49,6.44-6.87,15.66-14.45,15.66s-13.36,7.47-13.36,7.47v-5.67c0-5.67-.27-25.39-2.96-34.01-.49-1.57-1.28-2.91-2.32-4.06,2.09,10.56,2.3,47.54,2.32,54.54v.02c0,.73,0,1.13,0,1.13,0,0,0-1.79,2.69-7.76,2.69-5.97,11.65-8.37,17.62-7.47,5.97.9,10.45,6.28,12.25,15.23.61,3.05,1.22,9.07,1.69,16.29.04.59.08,1.18.11,1.78.82,13.71,1.12,31.09-.01,41.08-1.79,15.83-14.04,30.47-14.04,30.47l-5.97,5.67s-.02.49-.03,1.36c1.69-1.54,4.52-4.13,6.74-6.22.97-.91,1.82-1.73,2.41-2.31,2.62-2.62,9.71-17.63,11.95-24.5,2.01-6.15,1.62-34.33-.21-45.84,6.57-2.21,16.89-4.41,22.19-9.53Z"/>
              <path class="cls-7" d="m372.35,460.59c-2.64,14.17-3.29,35.96-4.02,45.83-.89,11.95-1.62,18.66-5.96,23-4.34,4.34-32.42,19.2-36.09,34.24-1.45-1.22-2.73-2.48-3.92-3.83,4.21-9.92,23.57-22.94,30.15-25.63,6.57-2.69,12.24-7.76,12.24-13.14s2.39-47.49,5.23-56.01c.48-1.42,1.15-2.73,1.99-3.92.13-.18.25-.36.39-.53Z"/>
              <path class="cls-8" d="m466.23,616.57c0,4.91-4.3,19.53-8.33,25.61-.19-.23-.37-.48-.55-.74-6.09-8.88-6.36-25.97-6.3-30.9.01-.88.03-1.36.03-1.36l5.97-5.67.73.82,6.44,7.25s.17-.24.44-.68c.04-.07.1-.15.15-.23.16-.26.35-.57.55-.93.58,2.33.88,4.48.88,6.84Z"/>
              <path class="cls-7" d="m623.73,679.53c8.2,5.67,17.24,10.74,26.17,14.78h-106.82l-50.19-54.07c10.16-23.89,4.78-44.5-2.69-49.58-3.09-2.1-7.26-2.31-11.07-1.36-.18.04-.36.09-.54.14-.22.06-.45.13-.67.2-.2.06-.39.13-.58.19-.05.02-.1.03-.13.05-.13.04-.27.1-.4.15-.15.06-.29.11-.43.17-.2.08-.39.17-.59.25-.13.06-.27.12-.41.19-.15.07-.3.15-.44.22-.45.23-.88.47-1.29.73-.14.09-.27.18-.41.27-.2.13-.39.27-.58.41-.15.11-.29.22-.43.34-.14.11-.28.23-.41.35-.13.11-.25.22-.37.34-.01.01-.03.03-.04.03-.1.1-.2.2-.29.29-.16.17-.31.33-.45.5-.09.1-.17.21-.25.31-.01.01-.02.02-.03.03-.07.1-.14.18-.2.28-.05.07-.1.14-.15.21-.17.26-.33.53-.46.79-.04.09-.09.17-.13.26-.08.18-.15.37-.21.56-.04.11-.07.21-.1.32-.04.14-.07.28-.1.42-.05.28-.08.56-.08.85,0,.2,0,.39-.01.58-.01.25-.03.49-.04.73-.02.18-.04.36-.06.53-.04.34-.09.68-.15,1.01-.06.32-.12.63-.2.94-.06.25-.12.5-.18.74-.1.37-.21.74-.32,1.09-.13.41-.27.81-.41,1.19-.39,1.03-.81,2-1.23,2.85-.1.2-.19.39-.29.57-.49.95-.95,1.74-1.29,2.29-.05.08-.1.17-.15.23-.27.44-.44.68-.44.68l-6.44-7.25-.73-.82s12.25-14.64,14.04-30.47c.65-5.71.83-13.84.7-22.32,21.31,21.9,58.83,48.11,77.11,62.5,21.06,16.57,51.53,50.18,74.83,66.32Z"/>
              <path class="cls-7" d="m711.55,670.12c-17.48-14.34-45.7-42.57-45.7-42.57,0,0,40.33,12.1,60.49,34.51,10.14,11.27,19.73,18.12,27.59,24.2,2.2,5.08,3.14,8.06,3.14,8.06h-45.98c7.52-6.67,10.77-15.74.46-24.2Z"/>
              <path class="cls-7" d="m408.35,503.43s7.84,4.99,20.09,2.3c0,0-9.11,7.29-20.09-2.3Z"/>
              <path class="cls-7" d="m392.52,504.93s-8.39,6.27-20.18,0c0,0,8.73,3.28,20.18,0Z"/>
              <path class="cls-7" d="m464.66,549.49s-12.25,11.14-24.34-.95c0,0,7.76,6.09,24.34.95Z"/>
              <path class="cls-7" d="m321.13,306.28s-3.88,13.21-16.73,17.81c0,0,6.87,4,10.46,9.97,0,0-1.34-6.12-4.48-9.26,0,0,12.25-9.86,10.75-18.52Z"/>
            </g>
          </g>
        </g>
        <rect class="cls-3" x="106.25" y="107.48" width="544.57" height="584.44"/>
      </g>
    </g>
  </g>
</svg>