<!DOCTYPE svg PUBLIC "-//W3C//DTD SVG 1.1//EN" "http://www.w3.org/Graphics/SVG/1.1/DTD/svg11.dtd">
<!-- Uploaded to: SVG Repo, www.svgrepo.com, Transformed by: SVG Repo Mixer Tools -->
<svg height="800px" width="800px" version="1.1" id="Layer_1" xmlns="http://www.w3.org/2000/svg" xmlns:xlink="http://www.w3.org/1999/xlink" viewBox="0 0 392.533 392.533" xml:space="preserve" fill="#000000">

<g id="SVGRepo_bgCarrier" stroke-width="0"/>

<g id="SVGRepo_tracerCarrier" stroke-linecap="round" stroke-linejoin="round"/>

<g id="SVGRepo_iconCarrier"> <path style="fill:#ff4040;" d="M281.849,132.655c2.004-1.875,4.655-2.909,7.434-2.909h66.586c8.21,0,14.869-6.659,14.869-14.869 V36.655c0-8.21-6.659-14.869-14.869-14.869H233.946c-8.21,0-14.869,6.659-14.869,14.869v78.222c0,8.21,6.659,14.869,14.869,14.869 c6.012,0,10.925,4.848,10.925,10.925v26.44L281.849,132.655z"/> <g> <path style="fill:#ffffff;" d="M323.804,64.905h-17.907V46.869c0-6.012-4.848-10.925-10.925-10.925 c-6.012,0-10.925,4.848-10.925,10.925v18.036H266.14c-6.012,0-10.925,4.848-10.925,10.925c0,6.012,4.848,10.925,10.925,10.925 h17.907v17.907c0,6.012,4.848,10.925,10.925,10.925c6.012,0,10.925-4.848,10.925-10.925V86.756h17.907 c6.012,0,10.925-4.848,10.925-10.925C334.73,69.754,329.816,64.905,323.804,64.905z"/> <path style="fill:#ffffff;" d="M355.998,0H233.946c-20.234,0-36.655,16.485-36.655,36.655v78.222 c0,16.356,10.796,30.384,25.729,34.974v42.214c0.065,9.244,11.442,14.222,18.295,7.952l52.17-48.549h62.384 c20.234,0,36.655-16.485,36.655-36.655V36.719C392.588,16.485,376.103,0,355.998,0z M370.802,114.877 c0,8.21-6.659,14.869-14.869,14.869h-66.586c-2.78,0-5.43,1.099-7.434,2.909l-37.042,34.392v-26.44 c0-6.012-4.848-10.925-10.925-10.925c-8.21,0-14.869-6.659-14.869-14.869V36.59c0-8.21,6.659-14.869,14.869-14.869h122.053 c8.21,0,14.869,6.659,14.869,14.869v78.287H370.802z"/> <path style="fill:#ffffff;" d="M247.392,253.608c-11.055-17.325-31.418-21.01-47.903-11.636l-33.487,20.299 c-1.422,0.84-3.038,1.228-5.042,1.228c-12.154,0-33.099-14.287-49.584-41.568c-9.244-15.192-15.192-31.741-16.356-45.446 c-0.905-10.796,1.228-18.941,5.689-21.721l33.358-20.299c16.356-9.956,21.657-31.418,11.636-47.903l-42.473-69.947 C93.34,0.776,72.33-4.913,55.392,5.107L36.128,16.873c-53.721,32.646-46.739,138.667,15.774,241.39 c48.937,80.291,117.98,134.206,171.96,134.271l0,0c13.123,0,24.954-3.168,35.232-9.438l19.265-11.636 c16.873-11.378,21.463-29.996,11.636-47.903L247.392,253.608z M266.98,352.776l-19.265,11.636 c-6.788,4.202-14.869,6.271-23.855,6.271l0,0c-45.899,0-108.929-50.941-153.277-123.798 c-23.467-38.659-38.788-78.675-45.188-113.713h15.58c6.012,0,10.925-4.848,10.925-10.925c0-6.012-4.848-10.925-10.925-10.925 H22.487c-0.323-4.267-0.453-8.404-0.517-12.412h38.465c6.012,0,10.925-4.848,10.925-10.925c0-6.077-4.848-10.925-10.925-10.925 H23.586c3.168-19.135,11.055-33.875,23.984-41.632L66.835,23.79c6.012-3.556,14.287-1.939,17.907,4.331l42.602,69.947 c3.685,6.077,1.745,14.158-4.331,17.907l-33.358,20.299c-12.024,7.37-17.842,22.303-16.097,42.214 c1.487,17.131,8.404,36.655,19.459,54.885c19.265,31.612,46.028,51.976,68.202,51.976c6.012,0,11.572-1.487,16.356-4.396 l33.487-20.299c6.012-3.62,14.287-1.616,17.907,4.331l42.602,69.947C274.673,341.139,273.897,347.152,266.98,352.776z"/> </g> <path style="fill:#000000;" d="M40.911,133.107h-15.58c6.4,35.103,21.721,75.119,45.188,113.713 c44.347,72.921,107.442,123.863,153.341,123.863l0,0c9.051,0,17.067-2.069,23.855-6.271l19.265-11.636 c6.982-5.56,7.758-11.572,4.331-17.907l-42.473-69.883c-3.62-5.947-11.895-8.016-17.907-4.331l-33.551,20.299 c-4.784,2.909-10.343,4.396-16.356,4.396c-22.238,0-49.002-20.428-68.202-51.976c-11.119-18.23-18.036-37.689-19.459-54.885 c-1.681-19.846,4.008-34.844,16.097-42.214l33.358-20.299c6.206-3.685,8.145-11.766,4.331-17.907L84.483,28.121 c-3.62-6.271-11.895-7.887-17.907-4.331L47.505,35.426c-12.929,7.822-20.816,22.497-23.984,41.568H60.37 c6.012,0,10.925,4.848,10.925,10.925c0,6.012-4.848,10.99-10.925,10.99H21.905c0,4.008,0.129,8.21,0.517,12.412h18.489 c6.012,0,10.925,4.848,10.925,10.925C51.837,128.323,46.924,133.107,40.911,133.107z"/> </g>

</svg>