<?xml version="1.0" ?>

<!-- Uploaded to: SVG Repo, www.svgrepo.com, Generator: SVG Repo Mixer Tools -->
<svg width="800px" height="800px" viewBox="0 0 512 512" xmlns="http://www.w3.org/2000/svg">

<defs>

<style>.e{fill:#eab84b;}.f{fill:#f2c34e;}.g{fill:#fcd17a;}.h{fill:#8c8c8c;}.i{fill:#cecece;}.j{fill:#cc993e;}.k{fill:#dfdfdf;}.l{fill:#41a08e;}.m{fill:#365650;}.n{fill:#75bbad;}</style>

</defs>

<g id="a"/>

<g id="b"/>

<g id="c">

<g>

<path class="i" d="M224,312l-19.31369-19.31369c-3.00059-3.00059-7.07027-4.68631-11.31375-4.68631h-20.25596c-7.62683,0-14.1934,5.38333-15.68911,12.86206l-2.81738,14.08728c-1.5126,7.56321,2.58585,15.12908,9.74719,17.99358l22.20105,8.88032c3.51367,1.40545,7.41177,1.52,11.00191,.3233l18.43974-6.14654,94.41375,33.7192c10.33556,3.69127,21.85701-.12535,27.94481-9.25704l.00003-.00005c9.9045-14.85675,.62733-34.93435-17.10596-37.02062l-97.25263-11.44149Z"/>

<path class="k" d="M200,352l48,24,80-26.53009,7.95891-33.22404h.00002c10.10711,0,17.20119,9.96119,13.89642,19.51275l-2.33339,6.74405,21.90483-9.37951c8.67047-3.71264,18.65473,.8421,21.53417,9.82373l3.24434,10.11981c2.40878,7.51351-1.01936,15.66131-8.07518,19.19266l-18.12509,9.07136c-3.24736,1.62526-6.951,2.09752-10.5023,1.33917l-11.40767-2.436-82.09501,35.76611-86.06889-19.86206,22.06885-44.13794Z"/>

<polygon class="n" points="152 296 112 288 80 248 32 280 72 376 16 496 160 496 166.67578 429.24146 177.93115 396.13794 200 352 152 296"/>

<path class="e" d="M215.18628,117.36554c-20.27734-8.69025-42.77222-10.79089-64.30786-6.00519h-.00024c-25.05249,5.56726-47.2085,20.09381-62.30298,40.84888l-40.5752,55.79077,72,56,8.91869,8,39.08131-104,64,24,4.65137-37.21204c1.98315-15.86359-6.77051-31.12482-21.46509-37.42242Z"/>

<path class="l" d="M320.04248,497.77429l143.95752-1.77429-9.79541-88.1604c-4.07129-36.63843-17.28369-71.66663-38.42334-101.8667l-23.78125-33.9729-48,16-16.97998,22.38623c-23.63672,31.16284-26.38281,73.42834-6.97754,107.38794v80.00012Z"/>

<path class="e" d="M388.45996,92.17712l-1.51562,1.29907,.0249,.0434c-23.38721-18.58875-54.77295-25.83856-85.07178-17.75891v.00006c-26.29883,7.013-43.38184,32.36597-40.00586,59.3736l2.1084,16.86566,54.68991-4,42.42166,112.49705,22.88843-4.49705,21.98926-31.41321c20.86621-29.80927,23.22461-68.81116,6.10107-100.91718v-.00012c-3.78418-7.09509-8.36523-13.54346-13.56738-19.30371l1.47705-.36578c22.85156-4.57031,45.53027,8.59064,52.89941,30.69879l11.10059,33.30121,24-72v-.00006c-27.08496-27.08521-70.45703-28.75085-99.54004-3.82281Z"/>

<path class="j" d="M395.56738,107.03516c-3.38574-3.74951-7.1123-7.24805-11.07617-10.39893l4.97852-6.2627c4.30664,3.42383,8.35645,7.22559,12.03516,11.30029l-5.9375,5.36133Z"/>

<path class="k" d="M167.77222,165.48517l-15.77222,10.51483-1.13721-.56854c-8.2085-4.10431-18.18994-.7771-22.29419,7.4314v.00006c-4.52246,9.0448,.0144,19.99811,9.60791,23.19592l5.82349,1.94116-32,80,40,8,8-32,17.68921,8.84448c7.90356,3.9519,17.5144,.74829,21.46606-7.15527l.84473-1.68921-6.81177-6.81177c-5.34253-5.34259-6.17139-13.71344-1.98047-20,4.85571-7.28369,14.69678-9.25189,21.98047-4.39612l10.81177,7.20789,8-48-47.41431-27.09393c-5.26196-3.00677-11.771-2.78259-16.81348,.5791Z"/>

<rect class="h" height="17.88854" transform="translate(-76.32816 284.49845) rotate(-63.43495)" width="8.00006" x="187.99997" y="195.05573"/>

<path class="k" d="M192,72h-16l16.98047-21.22565c7.1394-8.92419,2.89062-22.23981-8.09839-25.37946l-19.33154-5.52338c-7.74561-2.21301-15.92871,1.67749-19.10181,9.08173l-18.44873,43.04675L25.56323,203.70441c-6.03687,7.76172-8.17017,17.86786-5.7854,27.40729l12.22217,48.88831,48-32-6.17847-24.71399c-1.15405-4.61572-.19385-9.50562,2.61987-13.34235l83.55859-113.94366h48v-8c0-8.83655-7.16357-16-16-16Z"/>

<path class="i" d="M264,152l83.21467-6.93456c7.50354-.6253,14.46136,3.96266,16.84241,11.10582v.00002c2.32793,6.98376-.30639,14.66157-6.43155,18.74502l-13.62554,9.08369,24,64,16,8,8,16-48,16-8-32-3.36665,1.68332c-7.21729,3.60864-15.99225,1.27833-20.46822-5.43563l-8.16513-12.24769,12.9516-4.3172c5.83126-1.94375,8.58902-8.60157,5.84014-14.09933v-.00002c-1.71096-3.42191-5.20841-5.58345-9.03422-5.58345h-17.75751v-16h-24l-8-48Z"/>

<rect class="g" height="8.00019" transform="translate(-61.68681 91.77592) rotate(-18.43053)" width="25.29822" x="239.35089" y="231.9999"/>

<rect class="g" height="25.29822" transform="translate(-87.4067 414.72968) rotate(-71.56505)" width="8.00019" x="239.9999" y="255.35089"/>

<rect class="g" height="28.84441" transform="translate(-138.10213 317.95381) rotate(-56.30993)" width="7.99982" x="224.00009" y="273.57779"/>

<rect class="h" height="8.00006" transform="translate(-45.67236 150.5524) rotate(-26.56818)" width="17.88854" x="287.05573" y="167.99997"/>

<path class="g" d="M434.00293,245.04102l-4.00586-6.9248c13.57227-7.85107,22.00293-22.45654,22.00293-38.11621,0-5.0332-.8418-9.96777-2.50293-14.66699l7.54297-2.66602c1.96387,5.55811,2.95996,11.38965,2.95996,17.33301,0,18.50586-9.96191,35.76465-25.99707,45.04102Z"/>

<path class="g" d="M465.33301,242.40576l-2.66602-7.54297c7.97461-2.81836,13.33301-10.39893,13.33301-18.86279,0-2.28857-.38281-4.53174-1.13672-6.66797l7.54297-2.66406c1.05762,2.99414,1.59375,6.13379,1.59375,9.33203,0,11.84766-7.50195,22.45947-18.66699,26.40576Z"/>

<path class="g" d="M48.36523,121.30811c-.78613-5.84131-.56836-11.75342,.64746-17.57178,3.78418-18.11523,17.06543-32.97168,34.6582-38.77246l2.50586,7.59766c-14.89062,4.90967-26.13086,17.48193-29.33398,32.81055-1.0293,4.92773-1.21387,9.93018-.5498,14.86865l-7.92773,1.06738Z"/>

<path class="g" d="M28.44434,92.62842c-.42383-3.14404-.30762-6.32764,.34668-9.46143,2.42383-11.59814,11.9375-20.45166,23.67383-22.03125l1.06641,7.92871c-8.38184,1.12793-15.17773,7.45264-16.90918,15.73828-.46777,2.2417-.55176,4.51562-.25,6.75732l-7.92773,1.06836Z"/>

<path class="g" d="M252.12793,74.07324l-7.17578-3.53711c2.60547-5.28662,6.08398-10.07227,10.33691-14.22363,13.24609-12.92529,32.55566-17.85205,50.39258-12.85303l-2.1582,7.70312c-15.09473-4.22754-31.43848-.06201-42.64648,10.875-3.60156,3.51514-6.5459,7.56494-8.74902,12.03564Z"/>

<path class="g" d="M251.58789,39.15674l-7.17578-3.53613c1.40332-2.84766,3.27539-5.42432,5.56543-7.65967,8.48047-8.27393,21.31543-10.31738,31.93555-5.08301l-3.53516,7.17578c-7.58594-3.73779-16.75586-2.27979-22.8125,3.63281-1.63867,1.59912-2.97656,3.43945-3.97754,5.47021Z"/>

<path class="i" d="M353.29542,406.59583l-89.29538,57.40417-112-40-11.31371,11.31371c-3.00058,3.00058-7.07024,4.68629-11.31371,4.68629h-28.25572c-7.6269,0-14.19353-5.38335-15.68929-12.86214l-1.6-8c-1.98013-9.90067,5.59255-19.13786,15.68929-19.13786h28.48314l-10.84952-16.27428c-3.18493-4.77739-3.5658-10.89508-.99803-16.03062l3.84755-7.6951,40,32,104,24,57.18286-51.46458c12.03046-10.82741,30.86694-8.46072,39.84495,5.00629l.00003,.00005c8.22823,12.34234,4.74528,29.03266-7.73246,37.05407Z"/>

<path class="f" d="M408,328c-44.18262,0-80,35.81714-80,80s35.81738,80,80,80,80-35.81726,80-80-35.81738-80-80-80Zm-53.3335,80c0-29.45532,23.87842-53.33337,53.3335-53.33337,10.17188,0,19.67822,2.84753,27.76611,7.78894l-73.31055,73.31067c-4.94141-8.08801-7.78906-17.5946-7.78906-27.76624Zm53.3335,53.33325c-10.17188,0-19.67822-2.84741-27.76611-7.78882l73.31055-73.31055c4.94141,8.08789,7.78906,17.59436,7.78906,27.76611,0,29.45508-23.87842,53.33325-53.3335,53.33325Z"/>

<path class="m" d="M408,324c-46.31738,0-84,37.68213-84,84,0,4.11121,.31055,8.15015,.88428,12.10498l-61.39209,39.46631-110.14648-39.33838c-1.45898-.521-3.08203-.1543-4.17383,.93848l-11.31348,11.31348c-2.2666,2.2666-5.28027,3.51514-8.48535,3.51514h-28.25586c-5.70117,0-10.64941-4.05713-11.76758-9.64697l-1.60059-7.99951c-.70703-3.53955,.19922-7.17041,2.48828-9.96191,2.28809-2.79102,5.66992-4.3916,9.2793-4.3916h28.4834c1.47559,0,2.83105-.81201,3.52637-2.11279,.69629-1.30029,.62012-2.87842-.19824-4.10596l-10.84961-16.27441c-2.38184-3.57422-2.66895-8.18115-.74805-12.02246l1.63477-3.27002,36.13574,28.90918c.46875,.37451,1.01562,.63916,1.59961,.77393l104,24c1.27051,.29346,2.60547-.05176,3.5752-.92432l57.18262-51.46387c1.74316-1.56836,3.69141-2.84619,5.79102-3.79736l-3.30078-7.28711c-2.84863,1.29053-5.4873,3.01904-7.8418,5.1377l-7.31201,6.58093c.25586-19.94409,6.86719-39.32874,19.01221-55.33972l16.23145-21.40015,43.99561-14.66504s24.77295,35.45825,26.06885,37.44604l6.70117-4.37012c-1.34375-2.06055-27.75781-39.8667-27.75781-39.8667l-6.80273-13.60571,20.62305-29.46118c21.8457-31.20996,24.28125-71.47949,6.35352-105.09375-2.74268-5.14233-5.93359-10.01318-9.50342-14.57428,18.9502-1.32922,36.84521,10.32196,42.98779,28.75104l11.10059,33.30127c.54492,1.6333,2.07324,2.73486,3.79492,2.73486s3.25-1.10156,3.79492-2.73486l24-72c.47852-1.4375,.10449-3.02197-.9668-4.09375-13.81445-13.81445-32.17285-21.83545-51.69531-22.58496-19.13281-.73401-37.65088,5.58679-52.34082,17.78973-6.1377-4.56573-12.78906-8.4599-19.85449-11.53192-20.74707-9.02051-44.21484-10.77832-66.07031-4.94824-28.08789,7.49023-46.5498,34.89014-42.94434,63.73438l2.1084,16.86572,.01367-.00165c.00635,.0545,.00098,.10889,.00977,.16327l8,48c.32129,1.92871,1.99023,3.34229,3.94531,3.34229h20v12c0,2.20898,1.79102,4,4,4h17.75781c2.3252,0,4.41602,1.29199,5.45605,3.37256,.80371,1.60596,.86719,3.40381,.17969,5.0625-.68652,1.65869-2.00293,2.88525-3.70703,3.45264l-12.95117,4.31738c-1.18262,.39453-2.11426,1.31738-2.51855,2.49658-.40527,1.1792-.23633,2.47998,.45508,3.51709l8.16504,12.24756c5.3584,8.03613,15.70312,11.05127,24.48242,7.30469l6.33496,25.33984-15.82031,20.85791c-2.74365,3.6167-5.22021,7.39539-7.43555,11.30151l.0498-.42163-90.60156-10.65918-18.33203-18.33154c-3.77734-3.77734-8.7998-5.85791-14.1416-5.85791h-20.25586c-6.44849,0-12.31299,3.12036-16.00244,8.03394l5.55615-22.22632,13.22949,6.61475c9.86523,4.93262,21.90137,.91895,26.83203-8.94434l.84473-1.68896c.77051-1.53955,.46875-3.3999-.74902-4.61719l-6.81152-6.8125c-3.98047-3.98047-4.60352-10.26855-1.48047-14.95264,3.62598-5.43701,10.99707-6.91064,16.43359-3.28662l10.81152,7.20801c1.12891,.75342,2.56348,.88184,3.80859,.34229,1.24609-.53955,2.13281-1.67383,2.35547-3.0127l8-47.99658c.00879-.05469,.0166-.10986,.02344-.16504l4.65137-37.21191c2.19238-17.53125-7.61914-34.63574-23.85742-41.59521-18.80762-8.05914-39.11523-10.64844-59.17871-7.62976l4.44336-6.0592h45.97266c2.20898,0,4-1.79102,4-4v-8c0-11.02783-8.97168-20-20-20h-7.67773l11.78125-14.72656c4.19141-5.23877,5.47656-12.18262,3.43652-18.57373-2.03906-6.3916-7.1084-11.30762-13.55957-13.15088l-19.33105-5.52344c-9.6582-2.7583-19.92188,2.12207-23.87793,11.35205l-18.24512,42.57324L22.40625,201.24854c-6.83691,8.79053-9.20996,20.02881-6.50879,30.8335l12.22168,48.88818,.00781-.00195c.04785,.19189,.10278,.38306,.18066,.57031l39.32129,94.37012L12.375,494.30859l7.25,3.38281,56-120c.47559-1.01904,.5-2.19141,.06738-3.22998l-38.7334-92.95996,42.20801-28.13916,29.26367,36.5791,15.77441,47.32373,7.58984-2.53027-13.82031-41.46069,31.88696,6.37732,45.3728,52.93494-19.47339,38.94543-13.97388-3.22473-39.28809-31.43066c-.94336-.75537-2.17578-1.04297-3.35742-.7832-1.17969,.25879-2.17871,1.0376-2.71973,2.11768l-3.84766,7.6958c-3.20117,6.40283-2.72266,14.08105,1.24805,20.0376l6.7041,10.05566h-21.00977c-6.01562,0-11.65234,2.66797-15.46582,7.31982-3.81445,4.65186-5.3252,10.70312-4.14551,16.60254l1.59961,7.99951c1.86328,9.31641,10.11133,16.07812,19.6123,16.07812h28.25586c5.3418,0,10.36426-2.08057,14.1416-5.85791l9.52344-9.52393,9.34595,3.33789-6.3645,63.646,7.96094,.7959,6.16699-61.66931,92.50684,33.03845c.4375,.15625,.89258,.23291,1.3457,.23291,.75781,0,1.50977-.21533,2.16309-.63525l49.83691-32.03796v60.67322h.04297v1.77441h8v-67.61816l2.50781-1.6123c9.19043,36.41821,42.21777,63.45605,81.44922,63.45605,46.31738,0,84-37.68213,84-84s-37.68262-84-84-84Zm30.82617-245.41943c16.68359,.64062,32.41992,7.20508,44.58203,18.54541l-19.4082,58.2251-7.30566-21.91699c-7.92285-23.76642-32.29102-38.05444-56.84082-33.46863-2.13672-2.25305-4.37451-4.40607-6.70752-6.45331,12.96533-10.27631,29.07959-15.56989,45.68018-14.93158Zm-171.3335,69.11438l-1.63232-13.05676c-3.11133-24.89697,12.82422-48.54736,37.06738-55.0127,20.12207-5.36572,41.72168-3.74756,60.82031,4.55566s35.01367,22.99561,44.81348,41.37061c16.50195,30.94287,14.26074,68.01172-5.84961,96.74121l-20.01025,28.58575-11.5083-5.75421-22.33398-59.55713,10.98535-7.32275c7.60449-5.06982,10.89746-14.66699,8.00684-23.33789-2.97461-8.92285-11.59961-14.61279-20.96875-13.82764l-79.39014,6.61584Zm70.1792,104.67078c-.53125-.24414-1.10156-.36572-1.67188-.36572-.61328,0-1.22656,.14111-1.78906,.42236l-3.36621,1.68311c-5.40039,2.69971-12.00195,.94824-15.35156-4.07666l-5.25977-7.89014,7.98242-2.66113c3.88086-1.29297,7.00391-4.20215,8.56934-7.98096,1.56543-3.77832,1.41406-8.04395-.41504-11.70215-2.4043-4.80762-7.2373-7.79443-12.6123-7.79443h-13.75781v-12c0-2.20898-1.79102-4-4-4h-20.61133l-6.72949-40.37451,78.8877-6.57373c5.69141-.47607,10.91211,2.97412,12.71484,8.38477,1.75293,5.25781-.24316,11.07764-4.85449,14.15186l-13.62598,9.0835c-1.54688,1.03125-2.17969,2.99219-1.52637,4.73242l24,64c.35449,.9458,1.05273,1.72168,1.95605,2.17334l14.80762,7.40381,5.34082,10.68213-39.52637,13.17578-6.95215-27.80957c-.29492-1.17676-1.10742-2.15674-2.20898-2.66406Zm-164.55469,39.63428h20.25586c3.20508,0,6.21875,1.24854,8.48535,3.51514l19.31348,19.31348c.63574,.63574,1.46777,1.03906,2.36035,1.14404l89.17383,10.49109c-5.34277,11.46155-8.51855,23.82996-9.31543,36.49939l-86.04492-30.73022c-.84473-.30127-1.76367-.31055-2.61035-.02783l-18.43945,6.14648c-.74658,.24915-1.51196,.41528-2.28613,.51367l-32.48999-37.90527c1.37134-5.22974,6.13379-8.95996,11.59741-8.95996Zm29.39404,56.78345l-2.71387-3.16614,16.15771-5.38586,59.43311,21.22607-27.15967,10.18457-45.71729-22.85864Zm18.56006-115.54321l-5.66406-3.77637c-9.10938-6.07178-21.45605-3.60107-27.52734,5.50537-5.23145,7.8457-4.18848,18.37939,2.48047,25.04688l4.74316,4.74365c-3.20312,5.28662-10.00293,7.31836-15.625,4.50732l-17.68945-8.84473c-1.08594-.54297-2.3584-.56299-3.46094-.05664-1.10156,.50732-1.91406,1.4873-2.20898,2.66406l-7.07422,28.2998-31.54492-6.30859,30.21387-75.53564c.40918-1.02246,.37793-2.16895-.08496-3.16846-.46387-.99951-1.31934-1.76318-2.36426-2.11182l-5.82324-1.94092c-3.47168-1.15723-6.2666-3.76025-7.66699-7.1416s-1.26465-7.19775,.37207-10.4707c3.11133-6.22266,10.70605-8.75391,16.92773-5.64258l1.13672,.56836c1.28418,.64209,2.81152,.54736,4.00781-.24951l15.77246-10.51465c3.80762-2.5376,8.6377-2.70361,12.61035-.43408l44.99512,25.71143-6.52539,39.14941Zm-110.23584,46.90125l-27.16602-33.95758-1.66797-6.67108,34.38721,26.74561-5.55322,13.88306Zm40.91064-164.87634c20.84473-4.6333,42.23828-2.63379,61.86523,5.77734,12.98047,5.56299,20.82324,19.23584,19.07129,33.24951l-3.90723,31.2583-42.20508-24.11719c-6.61914-3.78271-14.67383-3.50439-21.0166,.72412l-13.86719,9.24414c-9.97852-4.36621-21.77246-.17578-26.69629,9.67236-2.67383,5.34912-2.89551,11.58496-.60742,17.10986,2.28906,5.52539,6.85547,9.77881,12.5293,11.67041l1.79883,.59912-19.23022,48.0752-40.62476-31.59711-1.15381-4.61481c-.86816-3.47314-.15137-7.12061,1.96484-10.00732l70.9751-96.784c.36816-.08606,.73462-.17773,1.104-.25995ZM34.50439,273.52319l-10.84521-43.38159c-2.10156-8.40332-.25586-17.14453,5.06152-23.98145L131.15723,74.45557c.20996-.27002,.38477-.56543,.51953-.87988l18.44824-43.04688c2.37305-5.53711,8.52832-8.46777,14.32715-6.81104l19.33105,5.52344c3.92871,1.12207,6.89355,3.99805,8.13574,7.89062,1.24219,3.8916,.49023,7.95361-2.06152,11.14404l-16.98047,21.22559c-.96094,1.2002-1.14844,2.84521-.48242,4.23145,.66602,1.38574,2.06738,2.26709,3.60547,2.26709h16c6.61719,0,12,5.3833,12,12v4h-44c-1.27441,0-2.47168,.60693-3.22559,1.63477l-83.55859,113.94336c-3.52734,4.81055-4.72168,10.88916-3.27539,16.67822l5.49512,21.97937-40.93115,27.28748Zm167.28491,83.84351l44.42163,22.21094c.56152,.28076,1.1748,.42236,1.78906,.42236,.47461,0,.95117-.08447,1.4043-.25488l37.65332-14.12012,16.1665,5.7738c.0249,1.25891,.08057,2.51904,.15283,3.7804l-40.50586,36.45508-79.09033-18.25171,18.00854-36.01587Zm206.21069,126.6333c-41.90625,0-76-34.09326-76-76s34.09375-76,76-76,76,34.09326,76,76-34.09375,76-76,76Z"/>

<path class="m" d="M439.73828,361.98291c-.14453-1.21777-.83984-2.30127-1.88672-2.94092-8.96777-5.479-19.29102-8.37549-29.85156-8.37549-31.61328,0-57.33301,25.71973-57.33301,57.3335,0,10.56152,2.89551,20.88428,8.375,29.85156,.63867,1.04639,1.72266,1.7417,2.94043,1.88672,.1582,.01855,.31543,.02783,.47266,.02783,1.05469,0,2.07422-.41699,2.82812-1.17139l73.31152-73.31055c.86719-.86719,1.28906-2.08398,1.14355-3.30127Zm-76.32129,67.16455c-3.11914-6.57324-4.75-13.79199-4.75-21.14746,0-27.20264,22.13086-49.3335,49.33301-49.3335,7.35547,0,14.57422,1.63135,21.14746,4.75098l-65.73047,65.72998Z"/>

<path class="m" d="M456.95801,378.14844c-.63867-1.04639-1.72266-1.7417-2.94043-1.88672-1.2207-.14209-2.43457,.27686-3.30078,1.14355l-73.31152,73.31055c-.86719,.86719-1.28906,2.08398-1.14355,3.30127,.14453,1.21777,.83984,2.30127,1.88672,2.94092,8.96777,5.479,19.29102,8.37549,29.85156,8.37549,31.61328,0,57.33301-25.71973,57.33301-57.3335,0-10.56152-2.89551-20.88428-8.375-29.85156Zm-48.95801,79.18506c-7.35547,0-14.57422-1.63135-21.14746-4.75098l65.73047-65.72998c3.11914,6.57324,4.75,13.79199,4.75,21.14746,0,27.20264-22.13086,49.3335-49.33301,49.3335Z"/>

<rect class="m" height="17.88854" transform="translate(-76.33255 284.4838) rotate(-63.43182)" width="8.00006" x="187.99997" y="195.05573"/>

<rect class="m" height="8.00019" transform="translate(-61.69794 91.80014) rotate(-18.43495)" width="25.29822" x="239.35089" y="231.9999"/>

<rect class="m" height="25.29822" transform="translate(-87.4067 414.72968) rotate(-71.56505)" width="8.00019" x="239.9999" y="255.35089"/>

<rect class="m" height="28.84441" transform="translate(-138.10213 317.95381) rotate(-56.30993)" width="7.99982" x="224.00009" y="273.57779"/>

<rect class="m" height="8.00006" transform="translate(-45.67236 150.5524) rotate(-26.56818)" width="17.88854" x="287.05573" y="167.99997"/>

<path class="m" d="M429.99707,238.11621l4.00586,6.9248c16.03516-9.27637,25.99707-26.53516,25.99707-45.04102,0-5.94336-.99609-11.7749-2.95996-17.33301l-7.54297,2.66602c1.66113,4.69922,2.50293,9.63379,2.50293,14.66699,0,15.65967-8.43066,30.26514-22.00293,38.11621Z"/>

<path class="m" d="M462.66699,234.86279l2.66602,7.54297c11.16504-3.94629,18.66699-14.55811,18.66699-26.40576,0-3.19824-.53613-6.33789-1.59375-9.33203l-7.54297,2.66406c.75391,2.13623,1.13672,4.37939,1.13672,6.66797,0,8.46387-5.3584,16.04443-13.33301,18.86279Z"/>

<path class="m" d="M48.36523,121.30811l7.92773-1.06738c-.66406-4.93848-.47949-9.94092,.5498-14.86865,3.20312-15.32861,14.44336-27.90088,29.33398-32.81055l-2.50586-7.59766c-17.59277,5.80078-30.87402,20.65723-34.6582,38.77246-1.21582,5.81836-1.43359,11.73047-.64746,17.57178Z"/>

<path class="m" d="M36.37207,91.56006c-.30176-2.2417-.21777-4.51562,.25-6.75732,1.73145-8.28564,8.52734-14.61035,16.90918-15.73828l-1.06641-7.92871c-11.73633,1.57959-21.25,10.43311-23.67383,22.03125-.6543,3.13379-.77051,6.31738-.34668,9.46143l7.92773-1.06836Z"/>

<path class="m" d="M244.95215,70.53613l7.17578,3.53711c2.20312-4.4707,5.14746-8.52051,8.74902-12.03564,11.20801-10.93701,27.55176-15.10254,42.64648-10.875l2.1582-7.70312c-17.83691-4.99902-37.14648-.07227-50.39258,12.85303-4.25293,4.15137-7.73145,8.93701-10.33691,14.22363Z"/>

<path class="m" d="M255.56543,33.68652c6.05664-5.9126,15.22656-7.37061,22.8125-3.63281l3.53516-7.17578c-10.62012-5.23438-23.45508-3.19092-31.93555,5.08301-2.29004,2.23535-4.16211,4.81201-5.56543,7.65967l7.17578,3.53613c1.00098-2.03076,2.33887-3.87109,3.97754-5.47021Z"/>

</g>

</g>

<g id="d"/>

</svg>